<?xml version="1.0" encoding="utf-8"?>
<!-- Generator: Adobe Illustrator 24.3.0, SVG Export Plug-In . SVG Version: 6.00 Build 0)  -->
<svg version="1.1" id="Layer_1" xmlns="http://www.w3.org/2000/svg" xmlns:xlink="http://www.w3.org/1999/xlink" x="0px" y="0px"
	 viewBox="0 0 1024 1024" style="enable-background:new 0 0 1024 1024;" xml:space="preserve">
<style type="text/css">
	.st0{fill:#1977F3;}
	.st1{fill:#FEFEFE;}
</style>
<g id="Layer_x0020_1">
	<path class="st0" d="M1017.78,512C1017.78,232.69,791.31,6.22,512,6.22S6.22,232.69,6.22,512c0,252.43,184.93,461.68,426.76,499.66
		V658.23H304.52V512h128.45V400.54c0-126.75,75.54-196.81,191.05-196.81c55.34,0,113.23,9.89,113.23,9.89V338.1h-63.8
		c-62.8,0-82.44,38.98-82.44,79.02V512h140.26l-22.4,146.24H591.02v353.43C832.85,973.75,1017.78,764.5,1017.78,512z"/>
	<path class="st1" d="M708.88,658.23L731.28,512H591.02v-94.88c0-39.97,19.56-79.02,82.44-79.02h63.8V213.62
		c0,0-57.9-9.89-113.23-9.89c-115.51,0-191.05,69.99-191.05,196.81V512H304.52v146.24h128.45v353.43
		c25.75,4.05,52.14,6.12,79.02,6.12c26.89,0,53.27-2.13,79.02-6.12V658.23H708.88z"/>
</g>
</svg>
