<?xml version="1.0" encoding="utf-8"?>
<!-- Generator: Adobe Illustrator 24.3.0, SVG Export Plug-In . SVG Version: 6.00 Build 0)  -->
<svg version="1.1" id="Layer_1" xmlns="http://www.w3.org/2000/svg" xmlns:xlink="http://www.w3.org/1999/xlink" x="0px" y="0px"
	 viewBox="0 0 512 512" style="enable-background:new 0 0 512 512;" xml:space="preserve">
<style type="text/css">
	.st0{fill:url(#SVGID_1_);}
	.st1{fill:url(#SVGID_2_);}
	.st2{fill:url(#SVGID_3_);}
</style>
<linearGradient id="SVGID_1_" gradientUnits="userSpaceOnUse" x1="255.5" y1="361.8102" x2="255.5" y2="821.5734" gradientTransform="matrix(1 0 0 1 0 -330)">
	<stop  offset="0" style="stop-color:#EA8928"/>
	<stop  offset="1" style="stop-color:#CF2B8F"/>
</linearGradient>
<path class="st0" d="M367.86,11H143.3C67.07,11,5,73.07,5,149.3v224.4C5,449.93,67.07,512,143.3,512h224.4
	c76.23,0,138.3-62.07,138.3-138.3V149.3C506,73.07,444.09,11,367.86,11z M461.6,373.86c0,51.72-42.02,93.74-93.74,93.74H143.3
	c-51.72,0-93.74-42.02-93.74-93.74V149.3c0-51.72,42.02-93.74,93.74-93.74h224.4c51.72,0,93.74,42.02,93.74,93.74L461.6,373.86
	L461.6,373.86z"/>
<linearGradient id="SVGID_2_" gradientUnits="userSpaceOnUse" x1="247.8587" y1="362.4667" x2="247.8587" y2="836.0832" gradientTransform="matrix(1 0 0 1 0 -330)">
	<stop  offset="0" style="stop-color:#EA8928"/>
	<stop  offset="1" style="stop-color:#CF2B8F"/>
</linearGradient>
<path class="st1" d="M247.86,136.12c-73.28,0-132.96,59.68-132.96,132.96s59.68,132.96,132.96,132.96s132.96-59.68,132.96-132.96
	S321.31,136.12,247.86,136.12z M247.86,356.3c-48.04,0-87.22-39.18-87.22-87.22s39.18-87.22,87.22-87.22s87.22,39.18,87.22,87.22
	C335.08,317.28,296.06,356.3,247.86,356.3z"/>
<linearGradient id="SVGID_3_" gradientUnits="userSpaceOnUse" x1="386.3914" y1="362.4667" x2="386.3914" y2="836.0832" gradientTransform="matrix(1 0 0 1 0 -330)">
	<stop  offset="0" style="stop-color:#EA8928"/>
	<stop  offset="1" style="stop-color:#CF2B8F"/>
</linearGradient>
<path class="st2" d="M386.39,97.26c-8.85,0-17.54,3.61-23.77,9.84s-9.84,14.92-9.84,23.77s3.61,17.54,9.84,23.77
	c6.23,6.23,14.92,9.84,23.77,9.84s17.54-3.61,23.77-9.84c6.23-6.23,9.84-14.92,9.84-23.77s-3.61-17.54-9.84-23.77
	S395.24,97.26,386.39,97.26z"/>
</svg>
