<?xml version="1.0" encoding="utf-8"?>
<!-- Generator: Adobe Illustrator 24.0.0, SVG Export Plug-In . SVG Version: 6.00 Build 0)  -->
<svg version="1.1" id="Layer_1" xmlns="http://www.w3.org/2000/svg" xmlns:xlink="http://www.w3.org/1999/xlink" x="0px" y="0px"
	 viewBox="0 0 512 512" style="enable-background:new 0 0 512 512;" xml:space="preserve">
<style type="text/css">
	.st0{fill:#BC0020;}
</style>
<g>
	<path class="st0" d="M497.2,373.1l-74-72.2c-9.9-9.6-23.2-15-37.5-15c-14.8,0-28.8,5.7-39.3,16l-28.8,28.1
		c-22.4-12.1-52.1-28.8-83-58.9c-30.9-30.1-48-59-60.5-81l28.8-28.1c21.4-20.9,21.9-54.5,1-74.9L130,15c-9.9-9.7-23.2-15-37.5-15
		C78,0,64.4,5.4,53.9,15.3c-6.4,5-38.2,32.4-50.1,89c-16.6,79.2,21.6,155.5,132,263.1C259,487.7,364.2,497,393.5,497
		c6.1,0,9.8-0.4,10.8-0.5c57.5-6.6,78.1-31.5,93.1-49.7C516.9,423.3,516.8,392.3,497.2,373.1z M472.7,427.4
		c-14.1,17.1-27.5,33.2-72.1,38.3c0,0-2.5,0.3-7.1,0.3c-26.2,0-120.7-8.7-235.4-120.4C56.4,246.3,20.6,178.2,34.8,110.6
		c10.4-49.4,37.9-70.4,39-71.2l0.9-0.7l0.8-0.8c4.6-4.5,10.6-6.9,16.9-6.9c5.8,0,11.1,2.1,15,5.9l74,72.2c8.5,8.3,8.1,22.3-1,31.1
		l-32.6,31.8l-0.5,0.5c-8.5,9.1-7.5,21.5-2.8,29.5c13.5,23.8,32,56.3,67.6,91c35.5,34.6,68.8,52.6,93.1,65.8
		c2.4,1.3,7.5,3.6,13.7,3.6c7.4,0,14.2-3.1,19.3-8.7l30.6-29.8c4.6-4.5,10.6-6.9,16.9-6.9c5.8,0,11.1,2.1,15,5.9l73.9,72.1
		C484.1,404.2,480.3,418.3,472.7,427.4z"/>
	<path class="st0" d="M310.2,75.9C337.5,79,369.6,95.1,392,117c22.7,22.1,39.2,53.7,42.2,80.6c0.9,7.9,7.8,13.8,15.8,13.8
		c0.6,0,1.2,0,1.7-0.1c8.7-0.9,15-8.6,14.1-17.1c-3.8-34-23.5-72-51.3-99.2C386.9,68.1,348.3,49,313.8,45.1
		c-8.7-1-16.6,5.1-17.6,13.6C295.2,67.2,301.5,74.9,310.2,75.9z"/>
	<path class="st0" d="M295.3,140.8c14.8,1.7,35.2,12.3,48.6,25.4c13.5,13.2,24.5,33.3,26.1,47.8c0.9,7.9,7.8,13.8,15.8,13.8
		c0.6,0,1.2,0,1.7-0.1c8.7-0.9,15-8.6,14.1-17.1c-2.8-24.8-19.7-51.2-35.2-66.4c-15.4-15-42.2-31.4-67.4-34.3
		c-8.7-1-16.6,5.1-17.6,13.6C280.4,132.1,286.6,139.8,295.3,140.8z"/>
</g>
</svg>
