<?xml version="1.0" encoding="utf-8"?>
<!-- Generator: Adobe Illustrator 24.0.0, SVG Export Plug-In . SVG Version: 6.00 Build 0)  -->
<svg version="1.1" id="Capa_1" xmlns="http://www.w3.org/2000/svg" xmlns:xlink="http://www.w3.org/1999/xlink" x="0px" y="0px"
	 viewBox="0 0 566.9 566.9" style="enable-background:new 0 0 566.9 566.9;" xml:space="preserve">
<style type="text/css">
	.st0{fill:#FD2854;}
	.st1{fill:#24F6FA;}
	.st2{fill:#FFFFFF;}
</style>
<ellipse cx="284.1" cy="283.5" rx="275.8" ry="275.6"/>
<path class="st0" d="M310.9,82.3c18.1-0.3,36.2-0.7,54.3-1c3.6,13,10.7,31.3,24.9,49.5c31.2,39.9,74.8,50.5,89.1,53.4
	c-0.1,24.5-0.3,49-0.4,73.4c-11.6-0.2-26.2-1.5-42.4-5.7c-26.9-7-46.9-18.9-59.5-28c0.1,7.5,0.1,18.7,0.1,32.3
	c0,18.1-0.1,28.4-0.1,39.4c-0.3,67.6,1.4,80.6-4.6,107.3c-1.9,8.6-2.9,12.9-5.1,19c-11.4,31.8-36.3,57.3-61.7,70.8
	c-50.9,27.2-123,16.5-157.5-24.5c-25.6-30.5-31.2-78.4-31.7-90.6c-0.1-1.5-0.1-3.1-0.1-3.1c-0.3-10.8,0.4-28.1,7-49
	c5.1-16.4,22-50.5,59.9-71.2c33.5-18.3,65.4-16.2,77.3-14.8c-0.3,24.8-0.6,49.5-0.9,74.3c-1.5-0.4-37.8-9-61.7,15.7
	c-22.7,23.5-19.9,62.5-2.2,82.2c8.6,9.6,19.4,13.1,26.8,15.7c3.3,1.1,30.2,10,52.9-0.9c32.2-15.4,36.1-51.4,36.3-53.3
	C311.5,276.4,311.2,179.3,310.9,82.3z"/>
<path class="st1" d="M281.8,63.6c24.6-0.1,49.2-0.3,73.8-0.4c0,7,1.1,12.6,2.3,16.6c1.4,4.7,3,8,5.9,13.7c0.2,0.5,4,8,8.1,14.5
	c5.3,8.4,15.3,24.2,30,36.1c19.2,15.5,41.3,19.9,55.2,21.2c0.4,17.4,0.7,34.9,1.1,52.3c-15.2,2.4-43.1,4.7-75.3-5.7
	c-20.9-6.8-36.7-16.7-47-24.5c6.5,39.8,10.3,93.6,0,155.4c-10.1,60.5-16.4,98.4-50.2,122.6c-47,33.7-114.3,17.4-138.2,2.3
	c-12.2-7.7-22.7-18.1-22.7-18.1c-12.5-12.3-19.6-24.1-22.2-28.6c-3.3-5.7-16-29.1-16.9-62.4c-0.3-11.3,0.6-30.3,8.6-51.6
	c4-10.6,18.7-48.3,59.9-71.2c38.2-21.3,75.2-16.5,86.5-14.6c-0.3,18.3-0.7,36.7-1,55c-8.9-2.1-22.7-4.2-39.4-2.2
	c-10.7,1.3-21,2.5-32,9.5c-21.8,13.7-27,35.7-27.9,39.8c-1.7,5.7-3.2,14.3-1.4,24.5c0.4,2.3,3.6,18.5,16.6,30.2
	c4.4,3.9,6.3,4.1,12.7,10.1c5.7,5.3,7,7.8,12.2,12.2c0,0,5.8,4.9,12.9,8.6c13,6.8,36.1,7.5,53.2-0.8c23.5-11.4,36.4-37.7,36.3-53.3
	C282.3,257.7,282,160.6,281.8,63.6z"/>
<path class="st2" d="M303.1,82.6c18.4-0.4,36.8-0.7,55.2-1.1c5.9,14.4,18.4,39.5,43.5,62.5c20.7,19,41.8,29,55.5,34.2
	c0.3,20,0.7,40,1,60c-12.5,0.5-31.9-0.3-54.1-7.5c-21.5-6.9-37.2-17.1-47-24.5c0,51.8,0,103.6,0,155.4c-0.4,5.9-5.6,71.6-64.9,107.8
	c-58.8,35.8-119,11.2-124.6,8.8c-3.4-1.1-9.1-3.3-15.3-7.1c-41.9-25.8-43.6-87.4-43.8-96.1c-0.3-10.8,0.4-28.1,7-49
	c6-19.2,23.9-51.5,59.9-71.2c26.5-14.6,51.7-16.1,64.7-15.9c-0.3,18.7-0.6,37.4-0.9,56.1c-3.8-1-27.1-6.9-49.9,7.4
	c-21.8,13.7-27,35.7-27.9,39.8c-1.1,5.1-3.4,13.6-1.4,24.5c2.5,13.8,10.1,22.7,13.8,26.9c8.8,10.2,18.9,15,19.2,15.1
	c0,0-0.1,0-0.1,0c0,0,0,0,0.1,0c0.1,0,0.1,0.1,0.1,0.1c3.3,4.8,10.1,13.3,21.6,19c19.2,9.6,40,5.3,52.9-0.9
	c32.2-15.4,36.1-51.4,36.3-53.3C303.7,276.6,303.4,179.6,303.1,82.6z"/>
<path class="st1" d="M236.3,242.4"/>
<path class="st2" d="M478,167.5"/>
<path class="st1" d="M587.1,154.1"/>
</svg>
