<?xml version="1.0" encoding="utf-8"?>
<!-- Generator: Adobe Illustrator 24.3.0, SVG Export Plug-In . SVG Version: 6.00 Build 0)  -->
<svg version="1.1" id="Layer_1" xmlns="http://www.w3.org/2000/svg" xmlns:xlink="http://www.w3.org/1999/xlink" x="0px" y="0px"
	 viewBox="0 0 100 100" style="enable-background:new 0 0 100 100;" xml:space="preserve">
<style type="text/css">
	.st0{fill:#DB0C0B;}
	.st1{fill:#E8EAED;}
</style>
<g>
	<g>
		<path class="st0" d="M98.71,50c0,26.9-21.81,48.7-48.71,48.7C23.1,98.7,1.29,76.91,1.29,50S23.1,1.3,50,1.3
			C76.9,1.3,98.71,23.1,98.71,50z"/>
	</g>
	<g>
		<g>
			<path class="st1" d="M78.08,60.54c0,4.89-3.97,8.86-8.87,8.86H30.78c-4.89,0-8.87-3.97-8.87-8.86V39.47
				c0-4.89,3.97-8.86,8.87-8.86h38.43c4.9,0,8.87,3.97,8.87,8.86V60.54z"/>
		</g>
		<g>
			<polygon class="st0" points="65.11,50 44.79,64.78 44.79,35.22 			"/>
		</g>
	</g>
</g>
</svg>
