<?xml version="1.0" encoding="utf-8"?>
<!-- Generator: Adobe Illustrator 24.0.0, SVG Export Plug-In . SVG Version: 6.00 Build 0)  -->
<svg version="1.1" id="Capa_1" xmlns="http://www.w3.org/2000/svg" xmlns:xlink="http://www.w3.org/1999/xlink" x="0px" y="0px"
	 viewBox="0 0 241.7 241.7" style="enable-background:new 0 0 241.7 241.7;" xml:space="preserve">
<style type="text/css">
	.st0{fill:#FFFFFF;}
	.st1{fill:#FDFEFE;}
	.st2{fill:#0180C7;}
	.st3{fill:#0172B1;}
	.st4{fill:none;stroke:#0180C7;stroke-width:1.0756;stroke-miterlimit:54.3289;}
</style>
<path class="st0" d="M205,241.7h-168c-20.4,0-36.9-16.5-36.9-36.9v-168C0.2,16.5,16.7,0,37.1,0h168c20.4,0,36.9,16.5,36.9,36.9v168
	C241.9,225.2,225.4,241.7,205,241.7z"/>
<path class="st1" d="M43.3,209.9c-0.9-0.4-1.6-0.9-0.5-1.9c0.7-0.5,1.4-1,2.2-1.5c6.9-4.7,13.4-9.8,17.7-17.3
	c3.6-6.3,3-9.9-1.5-14.5c-25-26-35.9-57.1-30.5-93.9C33.7,60,42.9,42,56.1,26.4c8-9.4,17.6-17.1,28-23.4c0.6-0.4,1.5-0.5,1.6-1.5
	c-0.2-0.5-0.6-0.4-0.9-0.4C67,1.1,49.3,0.7,31.6,1.2C14.7,1.8,0,15.5,0.1,35.1c0.1,57.2,0,114.5,0,171.8c0,17.8,13,32.6,30,33.3
	c14.4,0.6,28.8,0.1,43.2,0.1c1.1,0.1,2.1,0.1,3.2,0.1h76.1c19,0,38,0.1,56.9,0c17.6,0,31.9-14.8,31.9-33.1V207v-32.1
	c0-0.8,0.3-1.6-0.2-2.4c-0.9,0.1-1.3,0.9-1.8,1.4c-10.2,10.7-22.3,19.3-35.5,25.4c-32.4,14.9-65.4,15.9-98.9,4
	c-2.9-1.1-6.1-1.2-9.1-0.4c-4.4,1.2-8.8,2.5-13.2,3.9C69.8,210.8,56.7,212.6,43.3,209.9L43.3,209.9z M81.5,117.4
	c0.9-1.2,1.4-1.9,1.9-2.6c6.9-9.1,13.8-18.2,20.7-27.4c2-2.6,4-5.3,5.3-8.5c1.5-3.6-0.1-7-3.7-8.3c-1.6-0.5-3.3-0.7-5-0.6
	c-9.4-0.1-18.8-0.1-28.2,0c-1.3,0-2.6,0.2-3.9,0.5c-3,0.8-4.7,3.9-4,7c0.5,2.1,2.1,3.7,4.1,4.2c1.3,0.3,2.6,0.5,3.9,0.4
	c5.7,0.1,11.4,0,17.1,0.1c0.6,0,1.4-0.4,1.9,0.5c-0.5,0.7-0.9,1.3-1.4,1.9C82.1,95.4,74,106.2,65.8,117c-2,2.7-3.1,5.7-1.6,8.9
	c1.5,3.3,4.5,3.9,7.5,4.1c2.4,0.2,4.9,0.1,7.4,0.1c8.5,0,17,0.1,25.6-0.1c4.5-0.1,7-2.9,6.5-7.3c-0.4-3.5-2.6-5.3-6.9-5.3
	C96.9,117.4,89.4,117.4,81.5,117.4L81.5,117.4z M142.6,88.6c-6.6-6-13.9-6.4-21-2c-8.6,5.3-11.8,13.9-10.8,23.9
	c1,9.3,4.9,17,14.3,20.1c5.9,2,11.3,1.3,16.1-2.8c1.3-1,1.6-0.8,2.5,0.3c1.7,2.3,4.7,3.2,7.4,2.1c2.6-0.8,4.4-3.3,4.4-6.2
	c0.1-11,0.1-21.9,0-32.9c-0.1-4.4-4-7.2-8.1-6.3C145.2,85.3,143.9,86.9,142.6,88.6L142.6,88.6z M179.2,108.9
	c-0.2,13.7,10.7,24.1,24.4,22.7c12.6-1.3,20.8-11.1,20.3-25c-0.4-13.7-10.2-23.1-23.7-22.7C187.6,84.3,178.7,94.8,179.2,108.9z
	 M174.5,98c0-8.6,0.1-17.2,0-25.8c0-4.4-2.7-7.1-6.7-7.1c-3.9,0.1-6.5,2.8-6.5,7c-0.1,2.6,0,5.1,0,7.7v43.6c0,3.4,2,6.4,4.6,7.1
	c3.6,1,7.4-1.2,8.3-5c0.2-0.7,0.3-1.3,0.2-2C174.6,115,174.5,106.5,174.5,98L174.5,98z"/>
<path class="st2" d="M73.3,240.2c-14.4,0-28.8,0.5-43.2-0.1c-17-0.7-30-15.6-30-33.3C0,149.6,0.1,92.4,0,35.1
	C0,15.5,14.7,1.9,31.6,1.4c17.7-0.5,35.5-0.1,53.2-0.1c0.3,0,0.7-0.2,0.9,0.4c-0.1,1-1.1,1.1-1.6,1.5c-10.4,6.4-20,14-28,23.4
	C42.9,42.1,33.7,60,30.6,80.8c-5.5,36.7,5.5,67.9,30.5,93.9c4.4,4.7,5,8.3,1.5,14.5c-4.3,7.5-10.8,12.6-17.7,17.3
	c-0.7,0.4-1.5,1-2.2,1.5c-1.1,1-0.4,1.5,0.5,1.9c0.2,0.5,0.5,0.9,0.8,1.4c6.1,5.6,11.8,11.6,17.8,17.3c2.8,2.7,5.6,5.5,8.3,8.3
	C71.2,237.9,73,238.3,73.3,240.2z"/>
<path class="st3" d="M73.3,240.2c-0.3-1.9-2.1-2.2-3.2-3.4c-2.7-2.9-5.5-5.6-8.3-8.3c-6-5.7-11.7-11.7-17.8-17.3
	c-0.3-0.4-0.6-0.9-0.8-1.4c13.4,2.7,26.6,0.9,39.5-3.2c4.4-1.4,8.7-2.7,13.2-3.9c3-0.8,6.2-0.7,9.1,0.4c33.4,12,66.4,10.9,98.9-4
	c13.2-6.1,25.3-14.7,35.5-25.4c0.5-0.5,0.9-1.4,1.8-1.4c0.5,0.8,0.2,1.6,0.2,2.4V207c0.1,18.3-14,33.3-31.6,33.4h-0.3
	c-19,0.1-38,0-56.9,0H76.4C75.4,240.3,74.3,240.2,73.3,240.2L73.3,240.2z"/>
<path class="st2" d="M81.5,117.4c8,0,15.4-0.1,22.9,0c4.2,0.1,6.4,1.9,6.9,5.3c0.5,4.3-2,7.2-6.5,7.3c-8.5,0.1-17,0.1-25.6,0.1
	c-2.5,0-4.9,0.1-7.4-0.1c-3.1-0.2-6.1-0.8-7.5-4.1c-1.5-3.3-0.4-6.3,1.6-8.9c8.1-10.8,16.3-21.6,24.5-32.3c0.5-0.7,0.9-1.3,1.4-1.9
	c-0.5-0.9-1.3-0.5-1.9-0.5c-5.7-0.1-11.4,0-17.1-0.1c-1.3,0-2.6-0.2-3.9-0.4c-3-0.7-4.8-3.8-4.2-6.9c0.5-2.1,2.1-3.8,4.1-4.3
	c1.3-0.3,2.6-0.5,3.9-0.5C82,70,91.4,70,100.8,70c1.7-0.1,3.3,0.2,5,0.6c3.6,1.3,5.1,4.7,3.7,8.3c-1.3,3.1-3.3,5.8-5.3,8.5
	c-6.9,9.2-13.8,18.3-20.7,27.3C82.9,115.5,82.3,116.2,81.5,117.4L81.5,117.4z"/>
<path class="st2" d="M142.6,88.6c1.3-1.7,2.6-3.3,4.7-3.7c4.2-0.9,8.1,1.9,8.1,6.3c0.2,11,0.1,21.9,0,32.9c0,2.9-1.8,5.4-4.4,6.2
	c-2.6,1-5.6,0.2-7.4-2.1c-0.9-1.2-1.3-1.4-2.5-0.3c-4.8,4.1-10.2,4.8-16.1,2.8c-9.4-3.2-13.2-10.8-14.3-20.1
	c-1.1-10,2.1-18.6,10.8-23.9C128.8,82.2,136,82.6,142.6,88.6L142.6,88.6z M124,108.6c0.1,2.4,0.8,4.7,2.2,6.6
	c2.8,4,8.3,4.8,12.1,1.8c0.6-0.5,1.2-1.1,1.7-1.8c3-4.2,3-11,0-15.2c-1.5-2.1-3.8-3.4-6.3-3.5C128,96.2,123.9,100.8,124,108.6z
	 M179.2,108.9c-0.4-14.1,8.5-24.6,21.1-25c13.4-0.4,23.2,8.9,23.7,22.7c0.4,13.9-7.7,23.7-20.3,25C189.9,133,179,122.6,179.2,108.9
	L179.2,108.9z M192.4,107.6c-0.1,2.7,0.7,5.4,2.3,7.7c2.9,4,8.3,4.7,12.1,1.6c0.6-0.4,1.1-1,1.5-1.5c3.1-4.2,3.1-11.2,0.1-15.4
	c-1.5-2.1-3.8-3.4-6.3-3.5C196.4,96.2,192.4,100.7,192.4,107.6z M174.5,98c0,8.5,0.1,17,0,25.5c0.1,3.9-2.9,7.1-6.6,7.2
	c-0.6,0-1.3-0.1-2-0.2c-2.6-0.7-4.6-3.6-4.6-7.1V79.8c0-2.6-0.1-5.1,0-7.7c0.1-4.2,2.6-7,6.5-7c4-0.1,6.7,2.7,6.7,7.1
	C174.6,80.8,174.5,89.4,174.5,98z"/>
<path class="st1" d="M124,108.6c-0.1-7.7,4-12.4,9.8-12.1c2.5,0.1,4.8,1.4,6.3,3.5c3,4.1,3,11,0,15.2c-2.8,4-8.3,4.8-12.1,1.8
	c-0.6-0.5-1.2-1.1-1.7-1.8C124.8,113.3,124.1,111,124,108.6L124,108.6z M192.4,107.6c0-6.8,4-11.4,9.7-11c2.5,0.1,4.8,1.4,6.3,3.5
	c3,4.2,3,11.2-0.1,15.4c-3,3.9-8.4,4.6-12.2,1.5c-0.6-0.4-1.1-1-1.5-1.6C193.1,113,192.3,110.3,192.4,107.6z"/>
<path class="st4" d="M34.5,1.4h172.9c18.9,0,34.3,16,34.3,35.7v166.3c0,19.7-15.3,35.7-34.3,35.7H34.5c-18.9,0-34.3-16-34.3-35.7
	V37.1C0.3,17.4,15.6,1.4,34.5,1.4z"/>
</svg>
