<?xml version="1.0" encoding="utf-8"?>
<!-- Generator: Adobe Illustrator 24.0.0, SVG Export Plug-In . SVG Version: 6.00 Build 0)  -->
<svg version="1.1" id="Layer_1" xmlns="http://www.w3.org/2000/svg" xmlns:xlink="http://www.w3.org/1999/xlink" x="0px" y="0px"
	 viewBox="0 0 56.7 56.7" style="enable-background:new 0 0 56.7 56.7;" xml:space="preserve">
<style type="text/css">
	.st0{fill:#333333;}
</style>
<g>
	<path class="st0" d="M3.9,24.9c1,0,1.9-0.8,1.9-1.9c0-0.7-0.4-1.4-1-1.7c3-10.1,12.4-17.5,23.5-17.5c11.1,0,20.5,7.5,23.5,17.6
		c-0.5,0.3-0.9,0.9-0.9,1.6c0,1,0.8,1.9,1.9,1.9c1,0,1.9-0.8,1.9-1.9c0-1-0.8-1.9-1.9-1.9c0,0,0,0,0,0C49.6,10.6,39.8,2.8,28.2,2.8
		c-11.6,0-21.4,7.8-24.5,18.4c-0.9,0.1-1.7,0.9-1.7,1.8C2.1,24.1,2.9,24.9,3.9,24.9z"/>
	<path class="st0" d="M52.8,31.2c-1,0-1.9,0.8-1.9,1.9c0,0.7,0.4,1.3,1,1.6c-2.8,10.5-12.3,18.2-23.7,18.2
		C17,52.8,7.4,45.2,4.6,34.7c0.7-0.3,1.2-0.9,1.2-1.7c0-1-0.8-1.9-1.9-1.9S2.1,32,2.1,33c0,0.9,0.7,1.7,1.5,1.8
		c2.9,10.9,12.8,19,24.6,19c11.8,0,21.7-8.1,24.6-19c1-0.1,1.7-0.9,1.7-1.8C54.6,32,53.8,31.2,52.8,31.2z"/>
</g>
</svg>
